<svg width="24" height="24" viewBox="0 0 24 24" fill="none" xmlns="http://www.w3.org/2000/svg">
<path d="M17.3999 14.8499V5.4999C17.3999 4.0499 16.2499 2.8999 14.7999 2.8999H5.4999C4.0499 2.8999 2.8999 4.0499 2.8999 5.4999V14.8499C2.8999 16.2999 4.0499 17.4499 5.4999 17.4499H14.8499C16.2499 17.3999 17.3999 16.2499 17.3999 14.8499ZM19.5999 7.4999V15.5499C19.5999 17.7999 17.7499 19.6499 15.4999 19.6499H7.4499C7.1499 19.6499 6.9999 19.9999 7.1999 20.1999C7.6999 20.7499 8.3999 21.0999 9.2499 21.0999H15.9499C18.7999 21.0999 21.0999 18.7999 21.0999 15.9499V9.2499C21.0999 8.4499 20.7499 7.6999 20.1999 7.1999C19.9499 6.9999 19.5999 7.1999 19.5999 7.4999Z" fill="white"/>
</svg>
