<svg width="18" height="18" viewBox="0 0 18 18" fill="none" xmlns="http://www.w3.org/2000/svg">
<path fill-rule="evenodd" clip-rule="evenodd" d="M8.9993 0.9375C5.78914 0.9375 3.1868 3.53984 3.1868 6.75V7.27808C3.1868 7.80077 3.03208 8.31176 2.74214 8.74667L1.88069 10.0388C0.880869 11.5386 1.64415 13.5771 3.38309 14.0514C3.9498 14.2059 4.5213 14.3366 5.0961 14.4436L5.09753 14.4474C5.67427 15.9863 7.21575 17.0625 8.99925 17.0625C10.7827 17.0625 12.3242 15.9863 12.901 14.4474L12.9024 14.4436C13.4772 14.3367 14.0488 14.2059 14.6155 14.0514C16.3544 13.5771 17.1177 11.5386 16.1179 10.0388L15.2565 8.74667C14.9665 8.31176 14.8118 7.80077 14.8118 7.27808V6.75C14.8118 3.53984 12.2095 0.9375 8.9993 0.9375ZM11.5316 14.6527C9.84939 14.8537 8.1491 14.8537 6.46689 14.6527C7.0001 15.4189 7.92753 15.9375 8.99925 15.9375C10.071 15.9375 10.9984 15.4189 11.5316 14.6527ZM4.3118 6.75C4.3118 4.16117 6.41046 2.0625 8.9993 2.0625C11.5881 2.0625 13.6868 4.16117 13.6868 6.75V7.27808C13.6868 8.02287 13.9073 8.751 14.3204 9.37071L15.1818 10.6629C15.7557 11.5237 15.3176 12.6938 14.3195 12.966C10.8363 13.916 7.16229 13.916 3.6791 12.966C2.68098 12.6938 2.24287 11.5237 2.81675 10.6629L3.6782 9.37071C4.09134 8.751 4.3118 8.02287 4.3118 7.27808V6.75Z" fill="#877EFF"/>
</svg>
