<svg width="18" height="18" viewBox="0 0 18 18" fill="none" xmlns="http://www.w3.org/2000/svg">
<path fill-rule="evenodd" clip-rule="evenodd" d="M9.00086 6.1875C7.44756 6.1875 6.18836 7.4467 6.18836 9C6.18836 10.5533 7.44756 11.8125 9.00086 11.8125C10.5542 11.8125 11.8134 10.5533 11.8134 9C11.8134 7.4467 10.5542 6.1875 9.00086 6.1875ZM7.31336 9C7.31336 8.06802 8.06888 7.3125 9.00086 7.3125C9.93284 7.3125 10.6884 8.06802 10.6884 9C10.6884 9.93198 9.93284 10.6875 9.00086 10.6875C8.06888 10.6875 7.31336 9.93198 7.31336 9Z" fill="#877EFF"/>
<path fill-rule="evenodd" clip-rule="evenodd" d="M8.98191 0.9375C8.64856 0.937495 8.37028 0.93749 8.14182 0.953078C7.904 0.969304 7.67936 1.00429 7.46156 1.0945C6.95619 1.30383 6.55468 1.70535 6.34535 2.21072C6.23637 2.47381 6.20685 2.75109 6.19558 3.05247C6.18652 3.29474 6.06426 3.49688 5.88382 3.60106C5.70338 3.70523 5.46719 3.71005 5.25285 3.59676C4.98621 3.45583 4.73132 3.34275 4.44898 3.30557C3.90665 3.23418 3.35817 3.38114 2.9242 3.71414C2.73718 3.85765 2.59456 4.0347 2.46159 4.23255C2.33386 4.42261 2.19473 4.66361 2.02806 4.9523L2.00912 4.98511C1.84244 5.27379 1.7033 5.51478 1.60257 5.72042C1.49771 5.9345 1.41568 6.14654 1.38491 6.38026C1.31351 6.92259 1.46048 7.47107 1.79348 7.90504C1.96682 8.13094 2.19215 8.29512 2.44748 8.45555C2.65282 8.58457 2.76676 8.79158 2.76675 8.99999C2.76674 9.20837 2.65279 9.41535 2.44748 9.54435C2.19212 9.7048 1.96676 9.86899 1.7934 10.0949C1.46041 10.5289 1.31344 11.0774 1.38484 11.6197C1.41561 11.8534 1.49764 12.0654 1.6025 12.2795C1.70323 12.4852 1.84237 12.7262 2.00904 13.0148L2.02799 13.0476C2.19465 13.3363 2.33379 13.5773 2.46152 13.7674C2.59449 13.9652 2.7371 14.1423 2.92413 14.2858C3.3581 14.6188 3.90658 14.7658 4.44891 14.6944C4.73123 14.6572 4.9861 14.5441 5.25273 14.4032C5.4671 14.2899 5.70332 14.2947 5.88378 14.3989C6.06424 14.5031 6.18652 14.7053 6.19559 14.9476C6.20686 15.2489 6.23637 15.5262 6.34535 15.7893C6.55468 16.2947 6.95619 16.6962 7.46156 16.9055C7.67936 16.9957 7.904 17.0307 8.14182 17.0469C8.37028 17.0625 8.64856 17.0625 8.9819 17.0625H9.01979C9.35314 17.0625 9.63141 17.0625 9.85987 17.0469C10.0977 17.0307 10.3223 16.9957 10.5401 16.9055C11.0455 16.6962 11.447 16.2947 11.6563 15.7893C11.7653 15.5262 11.7948 15.2489 11.8061 14.9475C11.8152 14.7052 11.9374 14.5031 12.1179 14.3989C12.2983 14.2947 12.5345 14.2899 12.7489 14.4032C13.0155 14.5441 13.2704 14.6572 13.5527 14.6943C14.095 14.7657 14.6435 14.6188 15.0775 14.2858C15.2645 14.1423 15.4071 13.9652 15.5401 13.7673C15.6678 13.5773 15.807 13.3363 15.9736 13.0476L15.9926 13.0148C16.1592 12.7262 16.2984 12.4851 16.3991 12.2795C16.504 12.0654 16.586 11.8534 16.6168 11.6196C16.6882 11.0773 16.5412 10.5288 16.2082 10.0949C16.0349 9.86895 15.8095 9.70476 15.5542 9.54431C15.3489 9.41532 15.2349 9.20834 15.2349 8.99996C15.235 8.79161 15.3489 8.58466 15.5542 8.45568C15.8095 8.29522 16.0349 8.13102 16.2083 7.90509C16.5413 7.47112 16.6883 6.92264 16.6169 6.38031C16.5861 6.14659 16.5041 5.93455 16.3992 5.72048C16.2985 5.51484 16.1593 5.27387 15.9927 4.98522L15.9737 4.95238C15.8071 4.66369 15.6679 4.42266 15.5402 4.2326C15.4072 4.03475 15.2646 3.8577 15.0776 3.71419C14.6436 3.38119 14.0951 3.23423 13.5528 3.30563C13.2705 3.3428 13.0156 3.45586 12.749 3.59679C12.5346 3.71009 12.2984 3.70527 12.1179 3.60108C11.9375 3.49689 11.8152 3.29473 11.8061 3.05243C11.7948 2.75106 11.7653 2.4738 11.6564 2.21072C11.447 1.70535 11.0455 1.30383 10.5401 1.0945C10.3223 1.00429 10.0977 0.969304 9.85987 0.953078C9.63141 0.93749 9.35313 0.937495 9.01979 0.9375H8.98191ZM7.89208 2.13386C7.94995 2.10989 8.03786 2.08779 8.2184 2.07547C8.404 2.06281 8.6437 2.0625 9.00085 2.0625C9.358 2.0625 9.59769 2.06281 9.78329 2.07547C9.96384 2.08779 10.0517 2.10989 10.1096 2.13386C10.3393 2.22901 10.5218 2.41152 10.617 2.64123C10.647 2.71369 10.6719 2.82665 10.6819 3.09448C10.7041 3.68876 11.0109 4.26097 11.5554 4.57536C12.1 4.88976 12.7489 4.8693 13.2747 4.59141C13.5116 4.46617 13.6219 4.43124 13.6996 4.421C13.9461 4.38855 14.1955 4.45535 14.3927 4.60671C14.4424 4.64484 14.5055 4.70992 14.6064 4.86012C14.7102 5.01452 14.8303 5.22195 15.0089 5.53125C15.1875 5.84055 15.3071 6.04829 15.3889 6.21535C15.4685 6.37787 15.4933 6.46505 15.5015 6.52715C15.5339 6.77366 15.4671 7.02297 15.3158 7.22023C15.268 7.28246 15.1826 7.3605 14.9557 7.5031C14.4521 7.81947 14.11 8.37116 14.1099 8.9999C14.1099 9.62871 14.4521 10.1805 14.9556 10.4969C15.1826 10.6395 15.268 10.7175 15.3157 10.7797C15.4671 10.977 15.5339 11.2263 15.5014 11.4728C15.4932 11.5349 15.4684 11.6221 15.3888 11.7846C15.307 11.9517 15.1874 12.1594 15.0088 12.4687C14.8302 12.778 14.7101 12.9854 14.6064 13.1398C14.5054 13.29 14.4423 13.3551 14.3926 13.3932C14.1954 13.5446 13.9461 13.6114 13.6996 13.5789C13.6218 13.5687 13.5115 13.5338 13.2746 13.4086C12.7488 13.1307 12.0999 13.1102 11.5553 13.4247C11.0108 13.7391 10.7041 14.3112 10.6819 14.9055C10.6719 15.1733 10.647 15.2863 10.617 15.3588C10.5218 15.5885 10.3393 15.771 10.1096 15.8661C10.0517 15.8901 9.96384 15.9122 9.78329 15.9245C9.59769 15.9372 9.358 15.9375 9.00085 15.9375C8.6437 15.9375 8.404 15.9372 8.2184 15.9245C8.03786 15.9122 7.94995 15.8901 7.89208 15.8661C7.66237 15.771 7.47986 15.5885 7.38471 15.3588C7.3547 15.2863 7.32982 15.1733 7.3198 14.9055C7.29757 14.3112 6.99083 13.739 6.44628 13.4246C5.90173 13.1102 5.25282 13.1307 4.72704 13.4086C4.49009 13.5338 4.37982 13.5688 4.30206 13.579C4.05555 13.6115 3.80624 13.5447 3.60898 13.3933C3.55929 13.3552 3.49619 13.2901 3.39525 13.1399C3.29148 12.9855 3.17137 12.7781 2.9928 12.4688C2.81422 12.1594 2.69464 11.9517 2.61281 11.7846C2.5332 11.6221 2.50839 11.5349 2.50022 11.4728C2.46776 11.2263 2.53456 10.977 2.68593 10.7798C2.73367 10.7175 2.81906 10.6395 3.046 10.4969C3.54954 10.1805 3.89172 9.62882 3.89175 9.00005C3.89179 8.3712 3.54959 7.8194 3.04601 7.50299C2.81912 7.36042 2.73374 7.2824 2.686 7.22018C2.53464 7.02292 2.46784 6.77361 2.50029 6.5271C2.50846 6.465 2.53327 6.37782 2.61288 6.2153C2.69471 6.04824 2.81429 5.8405 2.99287 5.5312C3.17145 5.2219 3.29156 5.01447 3.39532 4.86007C3.49626 4.70987 3.55937 4.64479 3.60906 4.60666C3.80631 4.4553 4.05562 4.3885 4.30214 4.42095C4.3799 4.43119 4.49018 4.46613 4.72715 4.59138C5.25291 4.86926 5.90179 4.88972 6.44631 4.57534C6.99084 4.26096 7.29758 3.68878 7.3198 3.09451C7.32981 2.82666 7.35469 2.7137 7.38471 2.64124C7.47986 2.41152 7.66237 2.22901 7.89208 2.13386Z" fill="#877EFF"/>
</svg>
